<?xml version="1.0" standalone="no"?>
<!DOCTYPE svg PUBLIC "-//W3C//DTD SVG 20010904//EN"
 "http://www.w3.org/TR/2001/REC-SVG-20010904/DTD/svg10.dtd">
<svg version="1.0" xmlns="http://www.w3.org/2000/svg"
 width="500.000000pt" height="500.000000pt" viewBox="0 0 500.000000 500.000000"
 preserveAspectRatio="xMidYMid meet">

<g transform="translate(0.000000,500.000000) scale(0.100000,-0.100000)"
fill="#000000" stroke="none">
<path d="M2423 3790 c-13 -5 -23 -15 -23 -23 0 -20 23 -45 45 -49 17 -3 21
-12 23 -63 3 -59 -13 -161 -29 -179 -5 -5 -87 -8 -184 -7 -209 3 -357 -7 -352
-23 2 -6 14 -13 27 -16 19 -5 23 -12 24 -50 1 -25 -2 -55 -6 -67 -5 -17 -3
-23 13 -28 11 -4 23 -4 26 -1 4 3 -1 6 -10 6 -9 0 -17 5 -17 11 0 5 4 7 10 4
13 -8 9 48 -5 58 -6 5 -4 11 8 18 9 5 17 15 17 21 0 7 -5 6 -14 -2 -12 -9 -15
-8 -13 8 1 17 10 20 72 21 38 1 143 -1 233 -5 123 -5 167 -10 178 -21 13 -13
15 -102 14 -637 -1 -570 0 -621 15 -624 25 -6 67 7 60 18 -4 6 8 10 27 11 l33
1 -32 9 -33 10 0 597 c0 483 3 602 13 616 13 17 33 19 238 20 135 1 227 5 232
11 5 6 7 3 4 -7 -3 -9 -3 -19 1 -21 4 -2 1 -2 -5 -1 -7 2 -13 -6 -13 -17 0
-11 4 -18 9 -14 6 3 6 -6 1 -25 -5 -17 -5 -32 1 -35 16 -11 10 -25 -8 -19 -15
5 -16 4 -3 -5 28 -20 43 -13 35 17 -4 15 -7 32 -6 37 0 6 2 28 4 50 3 35 6 40
27 40 15 0 26 7 28 18 3 16 -16 17 -260 17 -145 0 -269 4 -277 9 -10 6 -15 42
-19 125 l-5 116 26 0 c16 0 31 8 37 21 14 25 5 53 -15 45 -8 -3 -17 -1 -20 4
-8 12 -102 12 -132 0z m21 -50 c3 0 3 7 0 15 -5 12 5 15 55 15 56 0 79 -11 49
-23 -8 -3 -6 -6 5 -6 11 -1 17 6 17 20 0 11 5 17 10 14 16 -10 -7 -43 -32 -47
-22 -3 -23 -6 -23 -115 1 -61 -3 -109 -7 -107 -14 9 -10 242 5 247 7 4 6 6 -4
6 -25 1 -29 -19 -29 -139 0 -88 -3 -110 -17 -121 -15 -13 -15 -11 -7 16 5 17
9 70 9 120 0 87 -1 89 -25 95 -17 4 -26 13 -27 30 -3 25 -3 25 7 3 5 -13 12
-23 14 -23z m83 -260 c14 -11 33 -20 41 -20 12 0 9 -6 -9 -26 l-24 -26 -5 29
c-4 23 -10 28 -35 28 -25 0 -30 -4 -33 -28 -2 -17 -8 -25 -14 -21 -6 4 -25 10
-42 14 l-31 6 46 21 c26 11 50 26 53 32 10 16 24 14 53 -9z m-337 -30 c0 -5
-21 -10 -47 -9 -36 0 -43 3 -28 9 28 12 75 12 75 0z m60 0 c0 -5 -10 -10 -22
-10 -19 0 -20 2 -8 10 19 13 30 13 30 0z m264 -7 c3 -10 5 -53 4 -97 -1 -67
-4 -79 -19 -83 -18 -5 -19 -30 -22 -542 l-2 -536 -1 585 c0 322 1 575 3 563 6
-31 18 -29 18 2 0 14 -6 25 -12 25 -14 0 -18 56 -7 84 8 21 31 20 38 -1z m331
7 c-3 -5 -26 -10 -51 -10 -28 0 -43 4 -39 10 3 6 26 10 51 10 28 0 43 -4 39
-10z m-330 -1277 c-3 -13 -10 -23 -15 -23 -6 0 -10 208 -10 544 0 430 2 545
12 548 10 4 14 -102 16 -521 1 -289 0 -536 -3 -548z"/>
<path d="M2482 3416 c1 -10 8 -17 13 -17 15 1 12 24 -3 29 -9 3 -13 -2 -10
-12z"/>
<path d="M2485 3290 c-3 -5 -2 -10 4 -10 5 0 13 5 16 10 3 6 2 10 -4 10 -5 0
-13 -4 -16 -10z"/>
<path d="M1936 3269 c-2 -8 -9 -29 -15 -48 -17 -53 -5 -48 13 5 9 26 14 50 11
52 -2 3 -6 -1 -9 -9z"/>
<path d="M1991 3254 c0 -11 3 -14 6 -6 3 7 2 16 -1 19 -3 4 -6 -2 -5 -13z"/>
<path d="M3020 3259 c-13 -9 -13 -10 1 -6 12 4 19 -5 28 -34 7 -21 16 -39 21
-39 5 0 2 20 -8 45 -18 49 -19 50 -42 34z"/>
<path d="M2956 3166 c-3 -13 -9 -31 -12 -40 -3 -9 -2 -16 4 -16 5 0 14 18 20
40 5 22 6 40 2 40 -4 0 -11 -11 -14 -24z"/>
<path d="M2020 3159 c0 -8 5 -21 10 -29 8 -12 9 -10 7 7 -4 26 -17 43 -17 22z"/>
<path d="M3073 3156 c4 -10 10 -30 13 -44 7 -30 55 -174 61 -181 2 -2 5 -2 8
0 2 3 -8 42 -24 87 -16 45 -27 82 -23 82 3 0 1 5 -6 12 -7 7 -12 20 -12 29 0
10 -5 21 -12 25 -8 5 -9 2 -5 -10z"/>
<path d="M1965 3150 c3 -5 8 -10 11 -10 2 0 4 5 4 10 0 6 -5 10 -11 10 -5 0
-7 -4 -4 -10z"/>
<path d="M3010 3130 c0 -5 5 -10 11 -10 5 0 7 5 4 10 -3 6 -8 10 -11 10 -2 0
-4 -4 -4 -10z"/>
<path d="M2035 3100 c3 -5 8 -10 11 -10 2 0 4 5 4 10 0 6 -5 10 -11 10 -5 0
-7 -4 -4 -10z"/>
<path d="M1885 3090 c3 -5 8 -10 11 -10 2 0 4 5 4 10 0 6 -5 10 -11 10 -5 0
-7 -4 -4 -10z"/>
<path d="M1960 3090 c0 -5 5 -10 11 -10 5 0 7 5 4 10 -3 6 -8 10 -11 10 -2 0
-4 -4 -4 -10z"/>
<path d="M2933 3089 c3 -9 2 -20 -2 -25 -13 -15 -30 -72 -23 -79 4 -3 14 18
24 46 14 40 15 56 7 63 -9 8 -10 7 -6 -5z"/>
<path d="M3010 3089 c0 -5 5 -7 10 -4 6 3 10 8 10 11 0 2 -4 4 -10 4 -5 0 -10
-5 -10 -11z"/>
<path d="M2047 3068 c4 -7 8 -16 8 -20 0 -11 15 -22 15 -10 0 19 -12 42 -22
42 -5 0 -6 -6 -1 -12z"/>
<path d="M1960 3060 c0 -5 5 -10 10 -10 6 0 10 5 10 10 0 6 -4 10 -10 10 -5 0
-10 -4 -10 -10z"/>
<path d="M1965 3031 c-3 -5 -1 -12 5 -16 5 -3 10 1 10 9 0 18 -6 21 -15 7z"/>
<path d="M2065 3010 c3 -5 8 -10 11 -10 2 0 4 5 4 10 0 6 -5 10 -11 10 -5 0
-7 -4 -4 -10z"/>
<path d="M1845 2981 c-3 -5 -1 -12 5 -16 5 -3 10 1 10 9 0 18 -6 21 -15 7z"/>
<path d="M1965 2970 c-3 -5 -1 -10 4 -10 6 0 11 5 11 10 0 6 -2 10 -4 10 -3 0
-8 -4 -11 -10z"/>
<path d="M2893 2963 c4 -3 2 -12 -5 -20 -9 -12 -4 -33 6 -22 12 14 16 49 5 49
-7 0 -9 -3 -6 -7z"/>
<path d="M3010 2959 c0 -5 5 -7 10 -4 6 3 10 8 10 11 0 2 -4 4 -10 4 -5 0 -10
-5 -10 -11z"/>
<path d="M2085 2950 c3 -5 8 -10 11 -10 2 0 4 5 4 10 0 6 -5 10 -11 10 -5 0
-7 -4 -4 -10z"/>
<path d="M1971 2934 c0 -11 3 -14 6 -6 3 7 2 16 -1 19 -3 4 -6 -2 -5 -13z"/>
<path d="M3010 2920 c0 -11 4 -20 8 -20 4 0 8 9 9 20 1 11 -2 20 -8 20 -5 0
-9 -9 -9 -20z"/>
<path d="M1823 2889 c-11 -43 -4 -42 15 3 6 15 8 29 4 32 -5 3 -13 -13 -19
-35z"/>
<path d="M3150 2915 c0 -5 11 -39 25 -75 14 -36 23 -52 21 -35 -3 17 -5 31 -6
33 -3 3 -7 20 -9 35 -1 16 -30 56 -31 42z"/>
<path d="M2103 2896 c4 -10 7 -22 7 -27 0 -5 4 -9 9 -9 12 0 2 38 -12 47 -7 4
-8 0 -4 -11z"/>
<path d="M1960 2870 c0 -5 5 -10 10 -10 6 0 10 5 10 10 0 6 -4 10 -10 10 -5 0
-10 -4 -10 -10z"/>
<path d="M2871 2864 c0 -11 3 -14 6 -6 3 7 2 16 -1 19 -3 4 -6 -2 -5 -13z"/>
<path d="M2126 2830 c8 -31 24 -50 24 -29 0 8 -7 24 -16 35 -14 18 -15 18 -8
-6z"/>
<path d="M3010 2840 c0 -5 5 -10 10 -10 6 0 10 5 10 10 0 6 -4 10 -10 10 -5 0
-10 -4 -10 -10z"/>
<path d="M1963 2815 c5 -37 17 -42 17 -7 0 18 -5 32 -10 32 -6 0 -9 -11 -7
-25z"/>
<path d="M1796 2808 c-8 -33 -7 -40 4 -33 6 4 8 10 5 15 -3 5 -1 11 5 15 12 8
13 25 1 25 -5 0 -11 -10 -15 -22z"/>
<path d="M2846 2794 c-8 -20 -8 -24 2 -24 4 0 8 9 9 20 2 24 -3 26 -11 4z"/>
<path d="M3010 2799 c0 -5 5 -7 10 -4 6 3 10 8 10 11 0 2 -4 4 -10 4 -5 0 -10
-5 -10 -11z"/>
<path d="M2154 2745 c14 -44 28 -46 15 -3 -5 18 -9 34 -9 35 0 2 -4 3 -9 3 -4
0 -3 -16 3 -35z"/>
<path d="M1960 2753 c0 -32 14 -40 80 -47 127 -14 176 -43 113 -67 -39 -15
-217 -20 -302 -10 -72 9 -101 26 -80 46 7 7 13 4 20 -7 8 -14 23 -18 64 -18
65 0 85 7 85 29 0 9 5 22 12 29 16 16 -28 16 -112 -2 -36 -8 -68 -12 -72 -10
-4 3 -10 -7 -14 -21 -9 -37 23 -77 72 -92 51 -15 259 -15 304 0 36 13 74 64
65 89 -7 17 -74 36 -156 45 -54 5 -59 8 -59 29 0 13 -4 24 -10 24 -5 0 -10 -8
-10 -17z m-37 -64 c6 -24 -12 -34 -48 -25 -31 8 -33 33 -2 39 41 8 45 7 50
-14z m247 -68 c0 -5 -7 -11 -15 -15 -15 -5 -20 5 -8 17 9 10 23 9 23 -2z"/>
<path d="M3201 2760 c0 -8 4 -22 9 -30 12 -18 12 -2 0 25 -6 13 -9 15 -9 5z"/>
<path d="M2835 2740 c3 -5 8 -10 11 -10 2 0 4 5 4 10 0 6 -5 10 -11 10 -5 0
-7 -4 -4 -10z"/>
<path d="M2834 2708 c3 -12 0 -18 -10 -18 -44 0 -13 -81 38 -100 49 -18 214
-24 280 -11 43 9 64 20 83 42 26 31 33 59 15 59 -5 0 -10 -6 -10 -14 0 -23
-29 -29 -180 -34 -142 -4 -230 6 -230 28 0 6 5 10 10 10 6 0 10 -4 10 -10 0
-12 30 -13 57 -3 16 6 16 8 -4 13 -16 3 -20 9 -14 19 6 9 31 14 75 15 36 0 66
4 66 9 0 11 -89 8 -134 -4 -30 -8 -41 -8 -48 3 -7 10 -8 9 -4 -4z m386 -78 c0
-5 -5 -10 -11 -10 -5 0 -7 5 -4 10 3 6 8 10 11 10 2 0 4 -4 4 -10z"/>
<path d="M3065 2714 c17 -3 37 -7 45 -10 26 -10 120 -15 120 -7 0 4 -12 9 -27
10 -105 8 -164 11 -138 7z"/>
<path d="M1960 2660 c0 -5 5 -10 10 -10 6 0 10 5 10 10 0 6 -4 10 -10 10 -5 0
-10 -4 -10 -10z"/>
<path d="M2938 2663 c12 -2 32 -2 45 0 12 2 2 4 -23 4 -25 0 -35 -2 -22 -4z"/>
<path d="M3058 2663 c12 -2 30 -2 40 0 9 3 -1 5 -23 4 -22 0 -30 -2 -17 -4z"/>
<path d="M2418 2173 c7 -3 16 -2 19 1 4 3 -2 6 -13 5 -11 0 -14 -3 -6 -6z"/>
<path d="M2084 2144 c-30 -46 -10 -51 194 -56 172 -4 182 -4 182 14 0 10 5 18
10 18 6 0 10 -7 10 -15 0 -8 5 -15 11 -15 6 0 9 6 6 14 -4 11 3 16 26 18 18 2
-29 7 -104 12 -94 5 -143 5 -157 -3 -12 -6 -40 -8 -67 -4 -76 10 -28 26 100
33 l110 7 -152 1 -153 2 -16 -26z m230 -29 c-5 -11 -21 -15 -68 -13 l-61 2 55
3 c38 3 50 7 40 13 -11 7 -8 10 12 10 20 0 26 -4 22 -15z m-144 -5 c-20 -13
-33 -13 -25 0 3 6 14 10 23 10 15 0 15 -2 2 -10z m267 -12 c-3 -8 -6 -5 -6 6
-1 11 2 17 5 13 3 -3 4 -12 1 -19z"/>
<path d="M2633 2163 c41 -5 51 -23 12 -23 -18 0 -25 -5 -25 -20 0 -11 -5 -20
-11 -20 -6 0 -13 9 -16 20 -3 11 -13 20 -22 20 -13 0 -13 -2 -2 -9 23 -14 5
-39 -31 -43 -18 -2 48 -2 147 1 192 4 225 10 225 39 0 38 -19 42 -170 40 -80
-1 -128 -3 -107 -5z m87 -11 c0 -4 -9 -8 -20 -8 -11 0 -20 4 -20 8 0 4 9 8 20
8 11 0 20 -4 20 -8z m70 1 c0 -5 3 -18 6 -30 5 -19 2 -23 -15 -23 -11 0 -21 4
-21 9 0 5 -8 12 -17 14 -13 3 -10 5 7 6 l25 2 -25 14 -25 14 33 1 c17 0 32 -3
32 -7z"/>
<path d="M1743 1785 c-90 -39 -99 -196 -13 -240 16 -8 37 -15 47 -14 15 0 14
2 -4 9 -71 29 -89 174 -28 228 44 37 90 27 128 -28 l17 -24 0 36 c0 32 -3 36
-31 42 -47 9 -81 7 -116 -9z"/>
<path d="M2011 1687 c-23 -62 -52 -123 -64 -135 l-21 -22 49 0 c39 1 46 3 33
11 -21 12 -23 33 -7 78 11 30 14 32 52 29 37 -3 41 -6 54 -43 10 -29 11 -45 3
-57 -9 -16 -5 -18 35 -18 43 0 44 1 27 18 -9 9 -37 70 -61 135 -24 64 -47 117
-51 117 -4 0 -26 -51 -49 -113z m55 28 c20 -48 18 -55 -16 -55 -16 0 -30 3
-30 6 0 12 23 84 27 84 2 0 11 -16 19 -35z"/>
<path d="M2813 1780 c-44 -27 -66 -64 -66 -113 0 -73 51 -137 110 -137 14 0
13 3 -6 13 -86 44 -92 212 -8 241 64 23 127 -39 127 -125 0 -62 -17 -99 -55
-115 -24 -11 -26 -13 -9 -14 27 0 70 34 89 70 61 118 -71 248 -182 180z"/>
<path d="M3370 1782 c-63 -34 -87 -118 -55 -186 16 -34 61 -66 92 -66 13 0 10
5 -13 19 -41 25 -58 68 -52 138 4 46 10 61 32 80 46 39 93 30 132 -26 l25 -36
-7 40 c-4 22 -8 41 -9 43 -2 2 -27 6 -56 8 -41 4 -62 1 -89 -14z"/>
<path d="M1240 1780 c21 -13 22 -209 1 -233 -12 -16 -6 -17 72 -17 l85 0 11
32 c6 17 9 34 6 36 -3 3 -5 0 -5 -6 0 -18 -61 -52 -92 -52 l-28 0 0 113 c0 75
4 117 12 125 9 9 2 12 -32 12 -32 0 -41 -3 -30 -10z"/>
<path d="M1448 1783 c8 -3 12 -37 12 -118 0 -98 -2 -115 -17 -124 -13 -8 8
-10 78 -11 l96 0 10 35 11 36 -34 -31 c-24 -21 -45 -30 -69 -30 l-35 0 0 60
c0 58 1 60 27 60 14 0 35 -7 45 -17 17 -15 18 -14 18 21 0 36 0 37 -22 22 -12
-9 -33 -16 -45 -16 -21 0 -23 4 -23 60 l0 60 -32 -1 c-18 0 -27 -3 -20 -6z"/>
<path d="M1557 1783 c13 -2 30 -14 38 -26 15 -21 15 -21 15 6 0 25 -3 27 -37
26 -24 -1 -29 -3 -16 -6z"/>
<path d="M2220 1780 c21 -13 22 -209 1 -233 -12 -16 -6 -17 72 -17 l85 0 11
32 c6 17 9 34 6 36 -3 3 -5 0 -5 -6 0 -18 -61 -52 -92 -52 l-28 0 0 113 c0 75
4 117 12 125 9 9 2 12 -32 12 -32 0 -41 -3 -30 -10z"/>
<path d="M2538 1778 c8 -8 12 -49 12 -120 0 -91 -3 -108 -17 -117 -14 -8 -7
-10 30 -11 48 0 48 0 33 22 -9 12 -16 42 -16 65 0 42 1 43 32 43 17 0 40 -7
50 -17 17 -15 18 -14 18 21 0 36 0 37 -22 22 -12 -9 -35 -16 -51 -16 l-29 0 4
60 3 60 -29 0 c-23 0 -27 -3 -18 -12z"/>
<path d="M2656 1779 c17 -5 36 -19 42 -31 10 -22 11 -21 11 10 1 31 0 32 -41
31 -42 -1 -42 -1 -12 -10z"/>
<path d="M3059 1781 c22 -14 28 -180 8 -220 l-15 -31 46 0 c37 1 43 3 30 11
-13 7 -18 23 -18 59 0 43 3 50 19 50 11 0 22 -9 26 -19 3 -10 19 -37 35 -60
26 -36 35 -41 68 -40 20 0 30 3 22 6 -23 8 -59 44 -82 81 l-20 33 26 20 c49
39 25 120 -35 118 -15 0 -18 -3 -9 -6 65 -23 46 -123 -24 -123 l-28 0 4 65 3
65 -35 0 c-25 0 -31 -3 -21 -9z"/>
<path d="M3594 1774 c23 -22 23 -190 0 -222 l-15 -22 89 0 90 0 11 32 c6 17 9
34 6 36 -3 3 -5 0 -5 -6 0 -19 -62 -52 -97 -52 l-33 0 0 60 c0 60 0 60 29 60
20 0 35 -8 45 -22 16 -22 16 -21 16 20 0 43 0 43 -22 28 -12 -9 -33 -16 -45
-16 -21 0 -23 4 -23 60 l0 60 -31 0 c-28 0 -29 -1 -15 -16z"/>
<path d="M3695 1783 c11 -2 31 -16 44 -31 l23 -27 -6 25 c-3 14 -6 28 -6 33 0
4 -17 6 -37 6 -21 -1 -29 -3 -18 -6z"/>
<path d="M1833 1634 c22 -12 27 -21 27 -53 0 -22 -6 -42 -12 -44 -8 -4 -7 -6
4 -6 37 -2 48 10 48 53 0 23 5 47 12 54 9 9 -1 12 -47 12 -59 -1 -60 -1 -32
-16z"/>
<path d="M3475 1625 c30 -29 35 -85 8 -85 -9 0 -14 -3 -10 -6 3 -4 18 -4 32 0
22 6 25 12 25 49 0 24 5 48 12 55 9 9 1 12 -40 12 l-51 0 24 -25z"/>
<path d="M1208 1273 c94 -2 250 -2 345 0 94 1 17 3 -173 3 -190 0 -267 -2
-172 -3z"/>
<path d="M3453 1273 c97 -2 257 -2 355 0 97 1 17 2 -178 2 -195 0 -275 -1
-177 -2z"/>
<path d="M1373 1243 c64 -2 170 -2 235 0 64 1 11 3 -118 3 -129 0 -182 -2
-117 -3z"/>
<path d="M3393 1243 c64 -2 170 -2 235 0 64 1 11 3 -118 3 -129 0 -182 -2
-117 -3z"/>
</g>
</svg>
