<?xml version="1.0" encoding="UTF-8"?>
<!DOCTYPE svg PUBLIC "-//W3C//DTD SVG 1.1//EN" "http://www.w3.org/Graphics/SVG/1.1/DTD/svg11.dtd">
<svg xmlns="http://www.w3.org/2000/svg" version="1.1" width="500px" height="500px" style="shape-rendering:geometricPrecision; text-rendering:geometricPrecision; image-rendering:optimizeQuality; fill-rule:evenodd; clip-rule:evenodd" xmlns:xlink="http://www.w3.org/1999/xlink">
<g><path style="opacity:1" fill="#fefefe" d="M -0.5,-0.5 C 166.167,-0.5 332.833,-0.5 499.5,-0.5C 499.5,166.167 499.5,332.833 499.5,499.5C 332.833,499.5 166.167,499.5 -0.5,499.5C -0.5,332.833 -0.5,166.167 -0.5,-0.5 Z"/></g>
<g><path style="opacity:1" fill="#0f0f0f" d="M 360.5,174.5 C 360.461,175.756 360.961,176.756 362,177.5C 362.497,175.19 362.663,172.857 362.5,170.5C 362.335,167.15 362.502,163.817 363,160.5C 363.368,159.09 364.201,158.09 365.5,157.5C 369.741,160.154 371.408,163.987 370.5,169C 370.417,175.752 368.084,181.586 363.5,186.5C 364.516,196.146 364.683,205.813 364,215.5C 367.792,209.704 372.792,205.371 379,202.5C 378.755,209.493 375.921,215.326 370.5,220C 367.295,222.102 363.962,223.935 360.5,225.5C 357.253,234.115 353.753,242.448 350,250.5C 354.643,246.094 360.143,243.76 366.5,243.5C 365.447,251.721 360.781,256.554 352.5,258C 349.447,258.179 346.447,258.679 343.5,259.5C 338.734,266.436 333.4,272.936 327.5,279C 333.009,277.627 338.675,277.293 344.5,278C 345.061,279.566 344.394,280.899 342.5,282C 335.54,286.374 328.04,287.541 320,285.5C 311.866,290.982 303.033,294.982 293.5,297.5C 292.833,297.167 292.167,296.833 291.5,296.5C 295.759,295.06 299.926,293.394 304,291.5C 305.492,283.338 309.492,276.672 316,271.5C 316.541,277.214 315.041,282.381 311.5,287C 317.707,284.505 323.207,280.672 328,275.5C 327.94,268.075 329.606,261.075 333,254.5C 334.351,252.981 335.851,251.648 337.5,250.5C 337.833,251.5 338.167,252.5 338.5,253.5C 337.481,257.89 336.647,262.223 336,266.5C 342.199,258.463 347.366,249.797 351.5,240.5C 347.414,231.795 346.58,222.795 349,213.5C 349.308,212.692 349.808,212.025 350.5,211.5C 352.197,212.364 353.363,213.697 354,215.5C 355.174,220.75 355.841,226.084 356,231.5C 359.275,223.071 361.275,214.404 362,205.5C 353.604,199.33 349.604,190.996 350,180.5C 355.733,184.973 359.733,190.64 362,197.5C 362.551,192.455 362.218,187.455 361,182.5C 359.484,177.479 357.984,172.479 356.5,167.5C 346.17,166.332 338.503,161.165 333.5,152C 333.833,151.5 334.167,151 334.5,150.5C 340.529,152.596 346.029,155.596 351,159.5C 346.899,150.022 341.066,141.522 333.5,134C 324.034,131.034 317.701,124.867 314.5,115.5C 318.918,114.135 322.918,114.969 326.5,118C 333.055,128.276 340.222,138.11 348,147.5C 347.569,138.521 347.569,129.521 348,120.5C 348.308,119.692 348.808,119.025 349.5,118.5C 358.001,129.389 358.667,140.889 351.5,153C 355.191,159.881 358.191,167.048 360.5,174.5 Z"/></g>
<g><path style="opacity:1" fill="#514d4e" d="M 252.5,127.5 C 253.609,126.71 254.942,126.21 256.5,126C 253.456,125.641 253.122,124.974 255.5,124C 252.042,122.585 248.375,122.085 244.5,122.5C 243.778,122.918 243.278,123.584 243,124.5C 241.801,120.814 241.467,121.147 242,125.5C 242.671,126.252 243.504,126.586 244.5,126.5C 245.496,126.414 246.329,126.748 247,127.5C 247.498,130.482 247.665,133.482 247.5,136.5C 246.596,135.791 246.263,134.791 246.5,133.5C 246.167,131.5 245.833,129.5 245.5,127.5C 243.833,127.5 242.167,127.5 240.5,127.5C 239.667,125.248 239.667,123.081 240.5,121C 243.375,119.935 246.375,119.435 249.5,119.5C 252.906,119.296 256.072,119.962 259,121.5C 259.625,126.372 257.459,128.372 252.5,127.5 Z"/></g>
<g><path style="opacity:1" fill="#a19fa0" d="M 244.5,122.5 C 245.833,123.167 247.167,123.833 248.5,124.5C 246.847,124.66 245.514,125.326 244.5,126.5C 243.504,126.586 242.671,126.252 242,125.5C 241.467,121.147 241.801,120.814 243,124.5C 243.278,123.584 243.778,122.918 244.5,122.5 Z"/></g>
<g><path style="opacity:1" fill="#ecebec" d="M 248.5,124.5 C 248.666,132.507 248.5,140.507 248,148.5C 247.283,149.044 246.783,149.711 246.5,150.5C 245.903,150.265 245.57,149.765 245.5,149C 247.22,145.025 247.887,140.859 247.5,136.5C 247.665,133.482 247.498,130.482 247,127.5C 246.329,126.748 245.496,126.414 244.5,126.5C 245.514,125.326 246.847,124.66 248.5,124.5 Z"/></g>
<g><path style="opacity:1" fill="#f3f3f3" d="M 244.5,122.5 C 248.375,122.085 252.042,122.585 255.5,124C 253.122,124.974 253.456,125.641 256.5,126C 254.942,126.21 253.609,126.71 252.5,127.5C 251.424,134.709 251.258,142.042 252,149.5C 250.861,145.342 250.361,141.009 250.5,136.5C 250.537,132.075 251.204,127.909 252.5,124C 251.072,123.421 249.738,123.588 248.5,124.5C 247.167,123.833 245.833,123.167 244.5,122.5 Z"/></g>
<g><path style="opacity:1" fill="#7f7d7d" d="M 246.5,133.5 C 246.263,134.791 246.596,135.791 247.5,136.5C 247.887,140.859 247.22,145.025 245.5,149C 245.57,149.765 245.903,150.265 246.5,150.5C 245.341,152.25 243.674,153.25 241.5,153.5C 235.012,153.009 228.679,153.675 222.5,155.5C 221.214,155.148 220.381,154.482 220,153.5C 216.714,155.396 213.214,155.896 209.5,155C 209.833,154.667 210.167,154.333 210.5,154C 203.508,153.5 196.508,153.334 189.5,153.5C 206.995,152.668 224.662,152.168 242.5,152C 243.578,151.326 244.245,150.326 244.5,149C 245.043,143.672 245.71,138.505 246.5,133.5 Z"/></g>
<g><path style="opacity:1" fill="#eae9e9" d="M 246.5,150.5 C 248.199,150.34 249.866,150.506 251.5,151C 253.221,152.527 255.221,153.527 257.5,154C 256,155.5 254.5,157 253,158.5C 253.529,153.357 251.362,151.524 246.5,153C 245.751,154.734 245.251,156.567 245,158.5C 242.834,156.879 240.334,156.045 237.5,156C 238.858,155.066 240.192,154.232 241.5,153.5C 243.674,153.25 245.341,152.25 246.5,150.5 Z"/></g>
<g><path style="opacity:1" fill="#101010" d="M 137.5,190.5 C 136.371,192.628 136.204,194.961 137,197.5C 138.039,196.756 138.539,195.756 138.5,194.5C 141.204,189.099 144.871,184.432 149.5,180.5C 149.685,190.138 146.018,198.138 138.5,204.5C 138.167,206.167 137.833,207.833 137.5,209.5C 138.408,216.728 140.242,223.728 143,230.5C 142.66,223.838 144.16,217.671 147.5,212C 148.449,211.383 149.282,211.549 150,212.5C 152.549,222.202 151.716,231.535 147.5,240.5C 151.649,249.466 156.816,257.799 163,265.5C 159.991,246.214 162.325,245.547 170,263.5C 170.173,267.541 170.673,271.541 171.5,275.5C 176.034,280.347 181.201,284.347 187,287.5C 185.752,284.307 184.419,280.974 183,277.5C 182.192,275.421 182.359,273.421 183.5,271.5C 189.706,276.856 193.539,283.523 195,291.5C 199.448,293.536 203.948,295.37 208.5,297C 202.993,296.623 197.66,295.29 192.5,293C 188.234,290.619 184.068,288.119 180,285.5C 172.497,287.36 165.331,286.526 158.5,283C 152.696,278.716 153.529,276.882 161,277.5C 164.988,277.596 168.822,278.096 172.5,279C 166.458,272.627 160.792,265.96 155.5,259C 143.636,259.754 135.969,254.587 132.5,243.5C 138.66,243.331 143.993,245.331 148.5,249.5C 148.833,249.167 149.167,248.833 149.5,248.5C 144.8,241.066 141.467,233.066 139.5,224.5C 128.294,221.294 121.627,213.96 119.5,202.5C 122.516,202.841 125.182,204.007 127.5,206C 130.719,209.552 133.552,213.385 136,217.5C 135.565,211.369 135.065,205.203 134.5,199C 134.657,195.316 134.99,191.649 135.5,188C 132.684,183.528 130.517,178.695 129,173.5C 127.591,167.684 128.758,162.517 132.5,158C 133.996,157.493 135.163,157.993 136,159.5C 136.367,165.204 137.034,170.87 138,176.5C 140.559,168.217 144.059,160.384 148.5,153C 141.85,141.866 141.85,130.699 148.5,119.5C 149.274,118.289 150.107,118.289 151,119.5C 151.333,120.833 151.667,122.167 152,123.5C 152.618,131.921 152.285,140.254 151,148.5C 154.902,141.928 159.569,135.928 165,130.5C 167.379,123.457 171.879,118.29 178.5,115C 180.473,114.505 182.473,114.338 184.5,114.5C 181.784,124.385 175.45,130.885 165.5,134C 158.865,141.134 153.199,148.968 148.5,157.5C 148.833,157.833 149.167,158.167 149.5,158.5C 154.165,154.917 159.331,152.251 165,150.5C 165.5,150.833 166,151.167 166.5,151.5C 161.322,160.846 153.488,166.513 143,168.5C 140.029,175.573 138.196,182.906 137.5,190.5 Z"/></g>
<g><path style="opacity:1" fill="#545051" d="M 252.5,127.5 C 252.334,133.509 252.501,139.509 253,145.5C 253.067,148.047 253.901,150.214 255.5,152C 273.164,152.5 290.83,152.667 308.5,152.5C 308.5,153.833 308.5,155.167 308.5,156.5C 306.396,156.201 304.396,156.534 302.5,157.5C 304.04,160.291 303.706,162.791 301.5,165C 302.464,166.725 303.131,168.559 303.5,170.5C 302.577,171.303 301.577,171.47 300.5,171C 301.413,169.586 301.413,168.086 300.5,166.5C 299.676,163.236 299.342,159.902 299.5,156.5C 293.833,156.5 288.167,156.5 282.5,156.5C 279.15,156.665 275.817,156.498 272.5,156C 273.016,153.967 272.35,153.967 270.5,156C 265.649,156.174 260.982,156.674 256.5,157.5C 255.167,158.5 253.833,159.5 252.5,160.5C 252.5,159.833 252.167,159.5 251.5,159.5C 251.643,157.738 251.309,156.071 250.5,154.5C 249.5,153.167 248.5,153.167 247.5,154.5C 246.593,157.421 246.26,160.421 246.5,163.5C 248.292,163.634 249.958,163.301 251.5,162.5C 251.5,163.167 251.5,163.833 251.5,164.5C 250.5,164.5 249.5,164.5 248.5,164.5C 248.33,165.822 248.663,166.989 249.5,168C 246.541,169.046 245.874,170.879 247.5,173.5C 248.16,209.849 247.494,245.849 245.5,281.5C 245.832,240.997 245.499,200.663 244.5,160.5C 244.047,159.542 243.381,158.708 242.5,158C 224.477,156.786 206.811,156.286 189.5,156.5C 189.5,155.5 189.5,154.5 189.5,153.5C 196.508,153.334 203.508,153.5 210.5,154C 210.167,154.333 209.833,154.667 209.5,155C 213.214,155.896 216.714,155.396 220,153.5C 220.381,154.482 221.214,155.148 222.5,155.5C 228.679,153.675 235.012,153.009 241.5,153.5C 240.192,154.232 238.858,155.066 237.5,156C 240.334,156.045 242.834,156.879 245,158.5C 245.251,156.567 245.751,154.734 246.5,153C 251.362,151.524 253.529,153.357 253,158.5C 254.5,157 256,155.5 257.5,154C 255.221,153.527 253.221,152.527 251.5,151C 249.866,150.506 248.199,150.34 246.5,150.5C 246.783,149.711 247.283,149.044 248,148.5C 248.5,140.507 248.666,132.507 248.5,124.5C 249.738,123.588 251.072,123.421 252.5,124C 251.204,127.909 250.537,132.075 250.5,136.5C 250.361,141.009 250.861,145.342 252,149.5C 251.258,142.042 251.424,134.709 252.5,127.5 Z"/></g>
<g><path style="opacity:1" fill="#cfcece" d="M 251.5,159.5 C 251.5,160.5 251.5,161.5 251.5,162.5C 249.958,163.301 248.292,163.634 246.5,163.5C 246.26,160.421 246.593,157.421 247.5,154.5C 248.5,153.167 249.5,153.167 250.5,154.5C 251.309,156.071 251.643,157.738 251.5,159.5 Z"/></g>
<g><path style="opacity:1" fill="#7c797a" d="M 282.5,156.5 C 274.016,157.493 265.349,157.826 256.5,157.5C 260.982,156.674 265.649,156.174 270.5,156C 272.35,153.967 273.016,153.967 272.5,156C 275.817,156.498 279.15,156.665 282.5,156.5 Z"/></g>
<g><path style="opacity:1" fill="#e6e6e6" d="M 275.5,153.5 C 278.518,153.335 281.518,153.502 284.5,154C 281.367,155.57 278.033,155.903 274.5,155C 275.056,154.617 275.389,154.117 275.5,153.5 Z"/></g>
<g><path style="opacity:1" fill="#343031" d="M 251.5,159.5 C 252.167,159.5 252.5,159.833 252.5,160.5C 252.5,200.5 252.5,240.5 252.5,280.5C 252.672,281.492 252.338,282.158 251.5,282.5C 251.667,246.498 251.5,210.498 251,174.5C 250.586,174.957 250.086,175.291 249.5,175.5C 248.5,211.16 248.167,246.827 248.5,282.5C 248.557,283.609 248.89,284.609 249.5,285.5C 247.302,285.88 245.635,285.213 244.5,283.5C 245.338,283.158 245.672,282.492 245.5,281.5C 247.494,245.849 248.16,209.849 247.5,173.5C 248.822,173.67 249.989,173.337 251,172.5C 250.599,169.939 250.765,167.272 251.5,164.5C 251.5,163.833 251.5,163.167 251.5,162.5C 251.5,161.5 251.5,160.5 251.5,159.5 Z"/></g>
<g><path style="opacity:1" fill="#605d5e" d="M 195.5,170.5 C 194.761,170.631 194.094,170.464 193.5,170C 194.297,166.255 194.797,162.421 195,158.5C 196,159.833 197,159.833 198,158.5C 198.944,161.347 198.444,163.847 196.5,166C 197.022,166.561 197.355,167.228 197.5,168C 196.491,168.355 195.824,169.188 195.5,170.5 Z"/></g>
<g><path style="opacity:1" fill="#aba9aa" d="M 300.5,166.5 C 301.413,168.086 301.413,169.586 300.5,171C 301.577,171.47 302.577,171.303 303.5,170.5C 303.5,171.167 303.5,171.833 303.5,172.5C 302.833,172.5 302.5,172.833 302.5,173.5C 300.875,174.325 299.208,173.992 297.5,172.5C 298.025,171.808 298.692,171.308 299.5,171C 299.167,170.667 298.833,170.333 298.5,170C 299.085,168.698 299.751,167.531 300.5,166.5 Z"/></g>
<g><path style="opacity:1" fill="#b6b5b5" d="M 251.5,164.5 C 250.765,167.272 250.599,169.939 251,172.5C 249.989,173.337 248.822,173.67 247.5,173.5C 245.874,170.879 246.541,169.046 249.5,168C 248.663,166.989 248.33,165.822 248.5,164.5C 249.5,164.5 250.5,164.5 251.5,164.5 Z"/></g>
<g><path style="opacity:1" fill="#9a9a9a" d="M 362.5,170.5 C 362.663,172.857 362.497,175.19 362,177.5C 360.961,176.756 360.461,175.756 360.5,174.5C 361.167,173.167 361.833,171.833 362.5,170.5 Z"/></g>
<g><path style="opacity:1" fill="#939091" d="M 195.5,170.5 C 196.833,170.5 198.167,170.5 199.5,170.5C 199.756,172.937 200.423,175.271 201.5,177.5C 201.167,177.833 200.833,178.167 200.5,178.5C 199.403,176.465 197.737,175.132 195.5,174.5C 196.025,173.808 196.692,173.308 197.5,173C 196.244,172.583 195.577,171.75 195.5,170.5 Z"/></g>
<g><path style="opacity:1" fill="#585555" d="M 302.5,173.5 C 302.5,172.833 302.833,172.5 303.5,172.5C 305.006,174.975 306.339,177.642 307.5,180.5C 306.833,181.833 306.167,181.833 305.5,180.5C 304.67,177.984 303.67,175.65 302.5,173.5 Z"/></g>
<g><path style="opacity:1" fill="#686566" d="M 192.5,171.5 C 193.376,171.369 194.043,171.702 194.5,172.5C 194.013,175.796 192.846,178.796 191,181.5C 191.619,178.292 192.119,174.958 192.5,171.5 Z"/></g>
<g><path style="opacity:1" fill="#848282" d="M 195.5,177.5 C 196.239,177.369 196.906,177.536 197.5,178C 197.59,180.368 197.257,182.868 196.5,185.5C 195.52,182.914 195.187,180.247 195.5,177.5 Z"/></g>
<g><path style="opacity:1" fill="#555152" d="M 295.5,180.5 C 296.376,180.369 297.043,180.702 297.5,181.5C 293.629,190.637 292.962,190.304 295.5,180.5 Z"/></g>
<g><path style="opacity:1" fill="#514e4f" d="M 308.5,187.5 C 307.086,185.956 306.753,184.289 307.5,182.5C 308.452,184.045 308.785,185.712 308.5,187.5 Z"/></g>
<g><path style="opacity:1" fill="#979595" d="M 301.5,182.5 C 302.788,184.035 302.788,185.701 301.5,187.5C 300.334,185.833 300.334,184.166 301.5,182.5 Z"/></g>
<g><path style="opacity:1" fill="#797676" d="M 189.5,183.5 C 190.782,184.708 190.782,186.042 189.5,187.5C 188.708,186.3 188.708,184.967 189.5,183.5 Z"/></g>
<g><path style="opacity:1" fill="#6b6869" d="M 195.5,187.5 C 196.787,188.871 197.453,190.705 197.5,193C 197.167,194.833 196.833,196.667 196.5,198.5C 195.933,195.107 195.599,191.44 195.5,187.5 Z"/></g>
<g><path style="opacity:1" fill="#6f6d6d" d="M 187.5,189.5 C 189.807,190.405 189.807,191.738 187.5,193.5C 186.708,192.3 186.708,190.967 187.5,189.5 Z"/></g>
<g><path style="opacity:1" fill="#716e6f" d="M 300.5,189.5 C 301.239,189.369 301.906,189.536 302.5,190C 301.888,191.303 301.554,192.47 301.5,193.5C 300.571,192.311 300.238,190.978 300.5,189.5 Z"/></g>
<g><path style="opacity:1" fill="#8d8d8d" d="M 137.5,190.5 C 137.232,192.099 137.566,193.432 138.5,194.5C 138.539,195.756 138.039,196.756 137,197.5C 136.204,194.961 136.371,192.628 137.5,190.5 Z"/></g>
<g><path style="opacity:1" fill="#4f4b4c" d="M 185.5,194.5 C 187.337,194.639 187.67,195.306 186.5,196.5C 185.702,196.043 185.369,195.376 185.5,194.5 Z"/></g>
<g><path style="opacity:1" fill="#4b4849" d="M 292.5,190.5 C 293.376,190.369 294.043,190.702 294.5,191.5C 293.235,194.796 292.068,198.129 291,201.5C 290.5,201 290,200.5 289.5,200C 291.002,196.995 292.002,193.829 292.5,190.5 Z"/></g>
<g><path style="opacity:1" fill="#676465" d="M 300.5,195.5 C 301.376,195.369 302.043,195.702 302.5,196.5C 302.167,197.833 301.833,199.167 301.5,200.5C 300.548,198.955 300.215,197.288 300.5,195.5 Z"/></g>
<g><path style="opacity:1" fill="#696666" d="M 201.5,182.5 C 202.117,182.611 202.617,182.944 203,183.5C 205.537,191.668 207.703,199.668 209.5,207.5C 206.035,199.439 203.369,191.106 201.5,182.5 Z"/></g>
<g><path style="opacity:1" fill="#4d494a" d="M 308.5,187.5 C 309.117,187.611 309.617,187.944 310,188.5C 311.26,194.353 313.093,200.02 315.5,205.5C 315.167,205.833 314.833,206.167 314.5,206.5C 311.415,200.488 309.415,194.154 308.5,187.5 Z"/></g>
<g><path style="opacity:1" fill="#6a6767" d="M 195.5,199.5 C 196.805,201.397 197.471,203.731 197.5,206.5C 197.167,208.833 196.833,211.167 196.5,213.5C 196.53,209.182 196.197,204.515 195.5,199.5 Z"/></g>
<g><path style="opacity:1" fill="#858283" d="M 184.5,198.5 C 185.552,198.351 186.552,198.517 187.5,199C 185.449,204.179 183.449,209.346 181.5,214.5C 181.167,214.167 180.833,213.833 180.5,213.5C 182.593,208.705 183.926,203.705 184.5,198.5 Z"/></g>
<g><path style="opacity:1" fill="#555253" d="M 288.5,202.5 C 289.376,202.369 290.043,202.702 290.5,203.5C 287.954,208.633 287.287,208.3 288.5,202.5 Z"/></g>
<g><path style="opacity:1" fill="#696666" d="M 300.5,202.5 C 301.725,203.152 302.392,204.319 302.5,206C 302.167,207.167 301.833,208.333 301.5,209.5C 300.526,207.257 300.192,204.924 300.5,202.5 Z"/></g>
<g><path style="opacity:1" fill="#686566" d="M 314.5,207.5 C 315.497,207.47 316.164,207.97 316.5,209C 318.589,213.048 319.256,217.215 318.5,221.5C 316.567,216.978 315.234,212.311 314.5,207.5 Z"/></g>
<g><path style="opacity:1" fill="#878586" d="M 286.5,214.5 C 285.5,212.421 285.834,210.421 287.5,208.5C 288.949,210.912 288.616,212.912 286.5,214.5 Z"/></g>
<g><path style="opacity:1" fill="#797677" d="M 300.5,211.5 C 301.748,212.334 302.415,213.667 302.5,215.5C 302.564,217.389 302.064,219.056 301,220.5C 300.502,217.518 300.335,214.518 300.5,211.5 Z"/></g>
<g><path style="opacity:1" fill="#646161" d="M 179.5,216.5 C 180.376,216.369 181.043,216.702 181.5,217.5C 177.605,227.948 176.938,227.614 179.5,216.5 Z"/></g>
<g><path style="opacity:1" fill="#5c5859" d="M 195.5,215.5 C 196.693,215.97 197.36,216.97 197.5,218.5C 197.333,219.5 197.167,220.5 197,221.5C 195.681,219.75 195.181,217.75 195.5,215.5 Z"/></g>
<g><path style="opacity:1" fill="#939191" d="M 286.5,214.5 C 286.954,217.199 286.287,219.865 284.5,222.5C 284.167,221.167 283.833,219.833 283.5,218.5C 284.694,217.201 285.694,215.868 286.5,214.5 Z"/></g>
<g><path style="opacity:1" fill="#484445" d="M 300.5,222.5 C 301.077,221.227 301.743,221.227 302.5,222.5C 302.03,223.463 301.363,223.463 300.5,222.5 Z"/></g>
<g><path style="opacity:1" fill="#6a6768" d="M 209.5,208.5 C 211.117,210.121 212.284,212.121 213,214.5C 215.011,219.287 216.178,223.954 216.5,228.5C 213.377,222.133 211.044,215.467 209.5,208.5 Z"/></g>
<g><path style="opacity:1" fill="#cfcecf" d="M 195.5,226.5 C 197.361,227.842 199.361,228.842 201.5,229.5C 199.169,229.498 197.169,230.331 195.5,232C 199.287,232.16 202.954,232.826 206.5,234C 203.008,233.93 200.008,234.763 197.5,236.5C 190.449,237.8 183.449,237.466 176.5,235.5C 176.442,231.299 177.442,230.799 179.5,234C 184.155,234.499 188.821,234.666 193.5,234.5C 193.166,231.812 193.832,229.479 195.5,227.5C 195.5,227.167 195.5,226.833 195.5,226.5 Z"/></g>
<g><path style="opacity:1" fill="#dedede" d="M 251.5,282.5 C 250.5,282.5 249.5,282.5 248.5,282.5C 248.167,246.827 248.5,211.16 249.5,175.5C 250.086,175.291 250.586,174.957 251,174.5C 251.5,210.498 251.667,246.498 251.5,282.5 Z"/></g>
<g><path style="opacity:1" fill="#676464" d="M 320.5,239.5 C 319.167,238.167 319.167,236.833 320.5,235.5C 322.116,233.584 321.782,232.084 319.5,231C 313.924,230.402 308.257,229.568 302.5,228.5C 301.833,233.833 301.167,233.833 300.5,228.5C 293.641,228.792 288.974,229.792 286.5,231.5C 286.672,230.508 286.338,229.842 285.5,229.5C 286.263,228.732 287.263,228.232 288.5,228C 294.683,227.677 300.85,227.177 307,226.5C 311.26,227.107 315.426,228.107 319.5,229.5C 320.167,229.167 320.833,228.833 321.5,228.5C 319.521,226.736 319.188,224.736 320.5,222.5C 322.125,225.873 323.458,229.373 324.5,233C 323.774,235.634 322.441,237.801 320.5,239.5 Z"/></g>
<g><path style="opacity:1" fill="#e5e5e5" d="M 320.5,235.5 C 307.791,236.9 295.125,236.733 282.5,235C 281.289,234.107 281.289,233.274 282.5,232.5C 283.688,233.84 285.188,234.507 287,234.5C 291.144,233.836 295.311,233.336 299.5,233C 294.981,232.825 290.647,232.325 286.5,231.5C 288.974,229.792 293.641,228.792 300.5,228.5C 301.167,233.833 301.833,233.833 302.5,228.5C 308.257,229.568 313.924,230.402 319.5,231C 321.782,232.084 322.116,233.584 320.5,235.5 Z"/></g>
<g><path style="opacity:1" fill="#433f40" d="M 215.5,239.5 C 213.524,241.011 211.191,241.844 208.5,242C 200.167,242.667 191.833,242.667 183.5,242C 177.15,240.691 174.483,237.025 175.5,231C 181.871,228.226 188.538,227.059 195.5,227.5C 193.832,229.479 193.166,231.812 193.5,234.5C 188.821,234.666 184.155,234.499 179.5,234C 177.442,230.799 176.442,231.299 176.5,235.5C 183.449,237.466 190.449,237.8 197.5,236.5C 202.844,236.666 208.177,236.499 213.5,236C 218.768,234.221 218.768,232.555 213.5,231C 209.582,229.844 205.582,229.344 201.5,229.5C 199.361,228.842 197.361,227.842 195.5,226.5C 195.238,225.022 195.571,223.689 196.5,222.5C 197.452,224.045 197.785,225.712 197.5,227.5C 204.864,227.04 211.864,228.373 218.5,231.5C 219.771,234.966 218.771,237.633 215.5,239.5 Z"/></g>
<g><path style="opacity:1" fill="#fafafa" d="M 201.5,229.5 C 205.582,229.344 209.582,229.844 213.5,231C 218.768,232.555 218.768,234.221 213.5,236C 208.177,236.499 202.844,236.666 197.5,236.5C 200.008,234.763 203.008,233.93 206.5,234C 202.954,232.826 199.287,232.16 195.5,232C 197.169,230.331 199.169,229.498 201.5,229.5 Z"/></g>
<g><path style="opacity:1" fill="#f4f3f3" d="M 186.5,229.5 C 188.167,229.5 189.833,229.5 191.5,229.5C 191.5,230.833 191.5,232.167 191.5,233.5C 189.801,233.66 188.134,233.494 186.5,233C 185.316,231.855 185.316,230.688 186.5,229.5 Z"/></g>
<g><path style="opacity:1" fill="#3d393a" d="M 285.5,229.5 C 286.338,229.842 286.672,230.508 286.5,231.5C 290.647,232.325 294.981,232.825 299.5,233C 295.311,233.336 291.144,233.836 287,234.5C 285.188,234.507 283.688,233.84 282.5,232.5C 281.289,233.274 281.289,234.107 282.5,235C 295.125,236.733 307.791,236.9 320.5,235.5C 319.167,236.833 319.167,238.167 320.5,239.5C 314.279,241.875 307.779,242.875 301,242.5C 294.185,243.215 287.852,241.881 282,238.5C 277.799,233.259 278.966,230.259 285.5,229.5 Z"/></g>
<g><path style="opacity:1" fill="#b5b3b4" d="M 215.5,239.5 C 212.988,238.784 212.988,237.784 215.5,236.5C 216.087,237.233 216.087,238.233 215.5,239.5 Z"/></g>
<g><path style="opacity:1" fill="#9c9a9b" d="M 244.5,160.5 C 245.499,200.663 245.832,240.997 245.5,281.5C 245.672,282.492 245.338,283.158 244.5,283.5C 242.338,282.583 240.005,282.583 237.5,283.5C 237.5,283.167 237.5,282.833 237.5,282.5C 239.556,281.784 241.723,281.117 244,280.5C 244.5,240.501 244.667,200.501 244.5,160.5 Z"/></g>
<g><path style="opacity:1" fill="#474344" d="M 252.5,280.5 C 264.754,282.01 277.087,283.01 289.5,283.5C 290.78,285.702 290.78,287.868 289.5,290C 277.475,290.251 265.475,290.751 253.5,291.5C 253.5,291.167 253.5,290.833 253.5,290.5C 256.932,290.752 257.932,289.419 256.5,286.5C 254.591,287.348 252.591,287.682 250.5,287.5C 249.761,287.369 249.094,287.536 248.5,288C 249.711,288.893 249.711,289.726 248.5,290.5C 246.596,286.556 245.596,286.89 245.5,291.5C 232.797,291.023 220.13,290.356 207.5,289.5C 206.22,287.276 206.553,285.276 208.5,283.5C 218.144,282.502 227.81,282.168 237.5,282.5C 237.5,282.833 237.5,283.167 237.5,283.5C 231.409,283.211 225.409,283.545 219.5,284.5C 217.571,284.231 215.905,284.731 214.5,286C 218.204,287.071 221.871,287.238 225.5,286.5C 226.5,287 227.5,287.5 228.5,288C 224.465,288.697 220.465,288.53 216.5,287.5C 215.263,287.556 214.263,288.056 213.5,289C 219.167,289.667 224.833,289.667 230.5,289C 231.337,287.989 231.67,286.822 231.5,285.5C 240.846,286.579 250.18,286.579 259.5,285.5C 260.167,290.833 260.833,290.833 261.5,285.5C 263.288,285.785 264.955,285.452 266.5,284.5C 262.675,283.735 258.842,283.068 255,282.5C 253.756,284.576 251.923,285.576 249.5,285.5C 248.89,284.609 248.557,283.609 248.5,282.5C 249.5,282.5 250.5,282.5 251.5,282.5C 252.338,282.158 252.672,281.492 252.5,280.5 Z"/></g>
<g><path style="opacity:1" fill="#949293" d="M 219.5,284.5 C 223.32,284.237 227.32,284.571 231.5,285.5C 231.67,286.822 231.337,287.989 230.5,289C 224.833,289.667 219.167,289.667 213.5,289C 214.263,288.056 215.263,287.556 216.5,287.5C 220.465,288.53 224.465,288.697 228.5,288C 227.5,287.5 226.5,287 225.5,286.5C 221.871,287.238 218.204,287.071 214.5,286C 215.905,284.731 217.571,284.231 219.5,284.5 Z"/></g>
<g><path style="opacity:1" fill="#e2e1e1" d="M 244.5,283.5 C 245.635,285.213 247.302,285.88 249.5,285.5C 251.923,285.576 253.756,284.576 255,282.5C 258.842,283.068 262.675,283.735 266.5,284.5C 264.955,285.452 263.288,285.785 261.5,285.5C 260.833,290.833 260.167,290.833 259.5,285.5C 250.18,286.579 240.846,286.579 231.5,285.5C 227.32,284.571 223.32,284.237 219.5,284.5C 225.409,283.545 231.409,283.211 237.5,283.5C 240.005,282.583 242.338,282.583 244.5,283.5 Z"/></g>
<g><path style="opacity:1" fill="#d3d2d2" d="M 274.5,283.5 C 275.833,283.5 277.167,283.5 278.5,283.5C 278.421,284.93 278.754,286.264 279.5,287.5C 279.113,288.72 278.28,289.387 277,289.5C 275.349,288.258 273.515,287.424 271.5,287C 273.167,286.667 274.833,286.333 276.5,286C 275.244,285.583 274.577,284.75 274.5,283.5 Z"/></g>
<g><path style="opacity:1" fill="#e6e6e6" d="M 253.5,290.5 C 251.5,290.5 250.5,289.5 250.5,287.5C 252.591,287.682 254.591,287.348 256.5,286.5C 257.932,289.419 256.932,290.752 253.5,290.5 Z"/></g>
<g><path style="opacity:1" fill="#999798" d="M 250.5,287.5 C 250.5,289.5 251.5,290.5 253.5,290.5C 253.5,290.833 253.5,291.167 253.5,291.5C 250.833,291.5 248.167,291.5 245.5,291.5C 245.596,286.89 246.596,286.556 248.5,290.5C 249.711,289.726 249.711,288.893 248.5,288C 249.094,287.536 249.761,287.369 250.5,287.5 Z"/></g>
<g><path style="opacity:1" fill="#393536" d="M 89.5,323.5 C 92.6399,322.359 95.9733,322.192 99.5,323C 98.5838,323.374 97.7504,323.874 97,324.5C 96.5002,333.494 96.3336,342.494 96.5,351.5C 102.872,352.23 107.706,349.896 111,344.5C 110.847,347.174 110.347,349.84 109.5,352.5C 102.825,352.666 96.1583,352.5 89.5,352C 90.3333,351.167 91.1667,350.333 92,349.5C 92.6667,341.167 92.6667,332.833 92,324.5C 91.3292,323.748 90.4959,323.414 89.5,323.5 Z"/></g>
<g><path style="opacity:1" fill="#3e3a3b" d="M 113.5,323.5 C 119.979,322.509 126.646,322.176 133.5,322.5C 133.663,324.857 133.497,327.19 133,329.5C 130.559,324.073 126.392,322.073 120.5,323.5C 120.5,327.833 120.5,332.167 120.5,336.5C 124.684,337.296 127.85,335.963 130,332.5C 130.667,335.5 130.667,338.5 130,341.5C 127.85,338.037 124.684,336.704 120.5,337.5C 120.5,342.167 120.5,346.833 120.5,351.5C 127.228,352.551 132.395,350.218 136,344.5C 135.651,347.062 134.817,349.562 133.5,352C 126.5,352.667 119.5,352.667 112.5,352C 113.931,351.535 115.097,350.701 116,349.5C 116.667,341.5 116.667,333.5 116,325.5C 115.292,324.619 114.458,323.953 113.5,323.5 Z"/></g>
<g><path style="opacity:1" fill="#403c3d" d="M 188.5,339.5 C 188.011,338.005 187.345,336.671 186.5,335.5C 184.452,324.885 182.452,324.885 180.5,335.5C 179.655,336.671 178.989,338.005 178.5,339.5C 177.738,341.956 177.071,344.456 176.5,347C 176.643,349.151 177.643,350.818 179.5,352C 176.167,352.667 172.833,352.667 169.5,352C 172.163,350.199 173.997,347.699 175,344.5C 177.47,337.422 180.137,330.422 183,323.5C 184.011,322.663 185.178,322.33 186.5,322.5C 189.034,330.576 191.867,338.576 195,346.5C 195.685,349.057 197.185,350.891 199.5,352C 195.833,352.667 192.167,352.667 188.5,352C 189.944,350.874 190.61,349.374 190.5,347.5C 190.032,344.767 189.365,342.1 188.5,339.5 Z"/></g>
<g><path style="opacity:1" fill="#393536" d="M 201.5,323.5 C 204.64,322.359 207.973,322.192 211.5,323C 210.584,323.374 209.75,323.874 209,324.5C 208.5,333.494 208.334,342.494 208.5,351.5C 214.872,352.23 219.706,349.896 223,344.5C 222.847,347.174 222.347,349.84 221.5,352.5C 214.825,352.666 208.158,352.5 201.5,352C 202.333,351.167 203.167,350.333 204,349.5C 204.667,341.167 204.667,332.833 204,324.5C 203.329,323.748 202.496,323.414 201.5,323.5 Z"/></g>
<g><path style="opacity:1" fill="#3d393a" d="M 237.5,323.5 C 244.313,322.509 251.313,322.175 258.5,322.5C 258.663,324.857 258.497,327.19 258,329.5C 255.241,323.988 250.741,321.988 244.5,323.5C 244.5,327.833 244.5,332.167 244.5,336.5C 248.803,337.204 252.303,335.87 255,332.5C 255.667,335.5 255.667,338.5 255,341.5C 252.409,337.952 248.909,336.618 244.5,337.5C 244.334,341.514 244.501,345.514 245,349.5C 245.833,350.333 246.667,351.167 247.5,352C 244.167,352.667 240.833,352.667 237.5,352C 238.333,351.167 239.167,350.333 240,349.5C 240.667,341.5 240.667,333.5 240,325.5C 239.292,324.619 238.458,323.953 237.5,323.5 Z"/></g>
<g><path style="opacity:1" fill="#3e3a3b" d="M 387.5,323.5 C 393.979,322.509 400.646,322.176 407.5,322.5C 407.663,324.857 407.497,327.19 407,329.5C 404.559,324.073 400.392,322.073 394.5,323.5C 394.5,327.833 394.5,332.167 394.5,336.5C 398.684,337.296 401.85,335.963 404,332.5C 404.667,335.5 404.667,338.5 404,341.5C 401.85,338.037 398.684,336.704 394.5,337.5C 394.5,342.167 394.5,346.833 394.5,351.5C 401.228,352.551 406.395,350.218 410,344.5C 409.651,347.062 408.817,349.562 407.5,352C 400.5,352.667 393.5,352.667 386.5,352C 387.931,351.535 389.097,350.701 390,349.5C 390.667,341.5 390.667,333.5 390,325.5C 389.292,324.619 388.458,323.953 387.5,323.5 Z"/></g>
<g><path style="opacity:1" fill="#464243" d="M 273.5,321.5 C 287.314,321.146 293.814,327.813 293,341.5C 288.205,352.317 280.371,355.484 269.5,351C 262.203,344.662 260.703,337.162 265,328.5C 267.441,325.546 270.275,323.213 273.5,321.5 Z"/></g>
<g><path style="opacity:1" fill="#fbfbfb" d="M 272.5,323.5 C 278.898,322.053 283.731,324.053 287,329.5C 289.263,336.005 288.929,342.338 286,348.5C 282.662,351.318 278.829,352.151 274.5,351C 272,349.833 270.167,348 269,345.5C 267.561,340.238 267.228,334.904 268,329.5C 269.332,327.34 270.832,325.34 272.5,323.5 Z"/></g>
<g><path style="opacity:1" fill="#423e3f" d="M 369.5,351.5 C 368.791,352.404 367.791,352.737 366.5,352.5C 358.92,350.046 355.254,344.713 355.5,336.5C 356.645,326.86 362.145,321.86 372,321.5C 375.168,321.543 378.168,322.209 381,323.5C 382.513,333.628 381.013,334.128 376.5,325C 365.969,321.34 360.302,325.173 359.5,336.5C 359.638,343.812 362.972,348.812 369.5,351.5 Z"/></g>
<g><path style="opacity:1" fill="#433f40" d="M 153.5,351.5 C 153.158,352.338 152.492,352.672 151.5,352.5C 141.78,349.41 137.947,342.744 140,332.5C 145.377,322.095 153.543,319.095 164.5,323.5C 165.652,326.106 165.818,328.773 165,331.5C 161.776,323.654 156.276,321.487 148.5,325C 146.951,326.214 145.785,327.714 145,329.5C 144.161,334.921 144.494,340.254 146,345.5C 147.48,348.817 149.98,350.817 153.5,351.5 Z"/></g>
<g><path style="opacity:1" fill="#f2f2f2" d="M 186.5,335.5 C 186.03,336.693 185.03,337.36 183.5,337.5C 181.97,337.36 180.97,336.693 180.5,335.5C 182.452,324.885 184.452,324.885 186.5,335.5 Z"/></g>
<g><path style="opacity:1" fill="#3e3a3b" d="M 308.5,339.5 C 308.5,338.833 308.5,338.167 308.5,337.5C 313.678,336.151 315.512,332.818 314,327.5C 311.85,324.037 308.684,322.704 304.5,323.5C 304.181,328.363 304.514,333.03 305.5,337.5C 303.325,341.028 302.992,344.695 304.5,348.5C 304.574,350.411 305.574,351.578 307.5,352C 303.833,352.667 300.167,352.667 296.5,352C 297.931,351.535 299.097,350.701 300,349.5C 300.667,341.5 300.667,333.5 300,325.5C 299.167,324.667 298.333,323.833 297.5,323C 302.833,322.333 308.167,322.333 313.5,323C 318.143,325.072 319.643,328.572 318,333.5C 316.172,335.328 314.339,337.161 312.5,339C 314.662,344.49 318.328,348.656 323.5,351.5C 325.527,350.307 327.027,348.64 328,346.5C 331.133,338.576 333.966,330.576 336.5,322.5C 337.822,322.33 338.989,322.663 340,323.5C 343.197,331.422 346.197,339.422 349,347.5C 349.785,349.286 350.951,350.786 352.5,352C 349.167,352.667 345.833,352.667 342.5,352C 343.944,350.874 344.61,349.374 344.5,347.5C 343.825,344.822 343.158,342.156 342.5,339.5C 339.15,339.335 335.817,339.502 332.5,340C 330.862,343.33 330.362,346.83 331,350.5C 331.75,351.126 332.584,351.626 333.5,352C 327.388,352.909 321.388,352.576 315.5,351C 312.941,347.281 310.608,343.448 308.5,339.5 Z"/></g>
<g><path style="opacity:1" fill="#f3f3f3" d="M 336.5,327.5 C 338.897,330.309 340.23,333.642 340.5,337.5C 338.076,337.808 335.743,337.474 333.5,336.5C 334.705,333.55 335.705,330.55 336.5,327.5 Z"/></g>
<g><path style="opacity:1" fill="#fbfbfb" d="M 308.5,337.5 C 307.5,337.5 306.5,337.5 305.5,337.5C 304.514,333.03 304.181,328.363 304.5,323.5C 308.684,322.704 311.85,324.037 314,327.5C 315.512,332.818 313.678,336.151 308.5,337.5 Z"/></g>
<g><path style="opacity:1" fill="#7b7879" d="M 180.5,335.5 C 180.97,336.693 181.97,337.36 183.5,337.5C 185.03,337.36 186.03,336.693 186.5,335.5C 187.345,336.671 188.011,338.005 188.5,339.5C 185.167,339.5 181.833,339.5 178.5,339.5C 178.989,338.005 179.655,336.671 180.5,335.5 Z"/></g>
<g><path style="opacity:1" fill="#3b3738" d="M 160.5,352.5 C 159.833,352.5 159.5,352.167 159.5,351.5C 160.496,351.586 161.329,351.252 162,350.5C 163.643,345.572 162.143,342.072 157.5,340C 161.167,339.333 164.833,339.333 168.5,340C 167.667,340.833 166.833,341.667 166,342.5C 165.821,345.553 165.321,348.553 164.5,351.5C 163.264,352.246 161.93,352.579 160.5,352.5 Z"/></g>
<g><path style="opacity:1" fill="#747171" d="M 305.5,337.5 C 306.5,337.5 307.5,337.5 308.5,337.5C 308.5,338.167 308.5,338.833 308.5,339.5C 307.167,339.5 305.833,339.5 304.5,339.5C 304.5,342.5 304.5,345.5 304.5,348.5C 302.992,344.695 303.325,341.028 305.5,337.5 Z"/></g>
<g><path style="opacity:1" fill="#373334" d="M 380.5,351.5 C 378.917,349.492 377.917,347.159 377.5,344.5C 376.976,341.812 375.309,340.312 372.5,340C 376.167,339.333 379.833,339.333 383.5,340C 382.034,343.8 381.034,347.633 380.5,351.5 Z"/></g>
<g><path style="opacity:1" fill="#929090" d="M 153.5,351.5 C 155.5,351.5 157.5,351.5 159.5,351.5C 159.5,352.167 159.833,352.5 160.5,352.5C 157.5,353.833 154.5,353.833 151.5,352.5C 152.492,352.672 153.158,352.338 153.5,351.5 Z"/></g>
<g><path style="opacity:1" fill="#827f80" d="M 377.5,344.5 C 377.917,347.159 378.917,349.492 380.5,351.5C 375.897,353.328 371.231,353.661 366.5,352.5C 367.791,352.737 368.791,352.404 369.5,351.5C 372.167,351.5 374.833,351.5 377.5,351.5C 377.5,349.167 377.5,346.833 377.5,344.5 Z"/></g>
<g><path style="opacity:1" fill="#696969" d="M 183.5,364.5 C 182.833,363.167 182.167,363.167 181.5,364.5C 178.8,363.058 179.134,362.392 182.5,362.5C 185.866,362.392 186.2,363.058 183.5,364.5 Z"/></g>
<g><path style="opacity:1" fill="#6a6a6a" d="M 215.5,366.5 C 214.842,365.602 214.176,364.602 213.5,363.5C 212.893,363.624 212.56,363.957 212.5,364.5C 211.711,364.217 211.044,363.717 210.5,363C 212.5,362.333 214.5,362.333 216.5,363C 215.663,364.011 215.33,365.178 215.5,366.5 Z"/></g>
<g><path style="opacity:1" fill="#525252" d="M 312.5,363.5 C 314.288,362.378 316.288,362.211 318.5,363C 319.922,368.355 319.256,368.689 316.5,364C 315.207,363.51 313.873,363.343 312.5,363.5 Z"/></g>
<g><path style="opacity:1" fill="#161616" d="M 183.5,364.5 C 183.5,368.833 183.5,373.167 183.5,377.5C 186.044,377.896 188.211,377.229 190,375.5C 190.483,376.448 190.649,377.448 190.5,378.5C 186.818,378.665 183.152,378.499 179.5,378C 181.399,373.822 182.065,369.322 181.5,364.5C 182.167,363.167 182.833,363.167 183.5,364.5 Z"/></g>
<g><path style="opacity:1" fill="#2f2f2f" d="M 283.5,363.5 C 285.265,362.539 287.265,362.205 289.5,362.5C 289.657,363.873 289.49,365.207 289,366.5C 287.826,364.329 285.993,363.329 283.5,363.5 Z"/></g>
<g><path style="opacity:1" fill="#1c1c1c" d="M 295.5,363.5 C 297.138,367.913 298.138,372.579 298.5,377.5C 301.044,377.896 303.211,377.229 305,375.5C 305.483,376.448 305.649,377.448 305.5,378.5C 301.818,378.665 298.152,378.499 294.5,378C 295.469,373.263 295.803,368.43 295.5,363.5 Z"/></g>
<g><path style="opacity:1" fill="#212121" d="M 250.5,363.5 C 252.288,362.378 254.288,362.211 256.5,363C 259.043,366.717 258.71,367.05 255.5,364C 253.866,363.506 252.199,363.34 250.5,363.5 Z"/></g>
<g><path style="opacity:1" fill="#eeeeee" d="M 199.5,365.5 C 200.674,366.514 201.34,367.847 201.5,369.5C 200.614,370.776 199.614,370.776 198.5,369.5C 199.246,368.264 199.579,366.93 199.5,365.5 Z"/></g>
<g><path style="opacity:1" fill="#1e1e1e" d="M 250.5,363.5 C 246.335,368.547 246.668,373.38 251.5,378C 247.079,377.734 245.079,375.234 245.5,370.5C 245.25,366.756 246.917,364.422 250.5,363.5 Z"/></g>
<g><path style="opacity:1" fill="#eeeeee" d="M 268.5,365.5 C 269.674,366.514 270.34,367.847 270.5,369.5C 269.614,370.776 268.614,370.776 267.5,369.5C 268.246,368.264 268.579,366.93 268.5,365.5 Z"/></g>
<g><path style="opacity:1" fill="#161616" d="M 215.5,366.5 C 216.267,370.037 217.6,373.371 219.5,376.5C 219.192,377.308 218.692,377.975 218,378.5C 215.865,373.923 214.031,369.257 212.5,364.5C 212.56,363.957 212.893,363.624 213.5,363.5C 214.176,364.602 214.842,365.602 215.5,366.5 Z"/></g>
<g><path style="opacity:1" fill="#313131" d="M 283.5,363.5 C 282.334,365.166 282.334,366.833 283.5,368.5C 286.657,369.397 288.991,371.231 290.5,374C 290.097,375.473 289.43,376.806 288.5,378C 285.854,378.497 283.187,378.664 280.5,378.5C 280.351,377.448 280.517,376.448 281,375.5C 283.853,378.318 286.353,378.152 288.5,375C 286.342,372.49 283.842,370.323 281,368.5C 279.923,365.738 280.756,364.072 283.5,363.5 Z"/></g>
<g><path style="opacity:1" fill="#1f1f1f" d="M 202.5,371.5 C 202.672,370.508 202.338,369.842 201.5,369.5C 201.34,367.847 200.674,366.514 199.5,365.5C 199.281,364.325 199.614,363.325 200.5,362.5C 203.12,367.524 205.454,372.69 207.5,378C 206.207,378.49 204.873,378.657 203.5,378.5C 203.702,376.05 203.369,373.717 202.5,371.5 Z"/></g>
<g><path style="opacity:1" fill="#1f1f1f" d="M 271.5,371.5 C 271.672,370.508 271.338,369.842 270.5,369.5C 270.34,367.847 269.674,366.514 268.5,365.5C 268.281,364.325 268.614,363.325 269.5,362.5C 272.12,367.524 274.454,372.69 276.5,378C 275.207,378.49 273.873,378.657 272.5,378.5C 272.702,376.05 272.369,373.717 271.5,371.5 Z"/></g>
<g><path style="opacity:1" fill="#2e2e2e" d="M 312.5,363.5 C 311.588,364.738 311.421,366.072 312,367.5C 313.932,369.038 316.099,370.205 318.5,371C 319.982,373.592 319.648,375.925 317.5,378C 314.854,378.497 312.187,378.664 309.5,378.5C 309.351,377.448 309.517,376.448 310,375.5C 312.853,378.318 315.353,378.152 317.5,375C 315.388,372.491 312.888,370.324 310,368.5C 309.259,365.981 310.092,364.315 312.5,363.5 Z"/></g>
<g><path style="opacity:1" fill="#5e5e5e" d="M 199.5,365.5 C 199.579,366.93 199.246,368.264 198.5,369.5C 199.614,370.776 200.614,370.776 201.5,369.5C 202.338,369.842 202.672,370.508 202.5,371.5C 200.833,371.5 199.167,371.5 197.5,371.5C 197.737,372.791 197.404,373.791 196.5,374.5C 196.167,374.5 195.833,374.5 195.5,374.5C 196.462,371.261 197.795,368.261 199.5,365.5 Z"/></g>
<g><path style="opacity:1" fill="#4f4f4f" d="M 229.5,370.5 C 230.974,367.673 230.64,365.173 228.5,363C 230.5,362.333 232.5,362.333 234.5,363C 232.372,365.273 230.705,367.773 229.5,370.5 Z"/></g>
<g><path style="opacity:1" fill="#5e5e5e" d="M 268.5,365.5 C 268.579,366.93 268.246,368.264 267.5,369.5C 268.614,370.776 269.614,370.776 270.5,369.5C 271.338,369.842 271.672,370.508 271.5,371.5C 269.833,371.5 268.167,371.5 266.5,371.5C 266.737,372.791 266.404,373.791 265.5,374.5C 265.167,374.5 264.833,374.5 264.5,374.5C 265.462,371.261 266.795,368.261 268.5,365.5 Z"/></g>
<g><path style="opacity:1" fill="#7f7f7f" d="M 298.5,377.5 C 298.138,372.579 297.138,367.913 295.5,363.5C 297.704,362.495 300.704,362.162 304.5,362.5C 304.649,363.552 304.483,364.552 304,365.5C 302.416,364.139 300.582,363.472 298.5,363.5C 298.5,365.5 298.5,367.5 298.5,369.5C 300.144,369.714 301.644,369.38 303,368.5C 303.667,369.833 303.667,371.167 303,372.5C 301.644,371.62 300.144,371.286 298.5,371.5C 298.5,373.5 298.5,375.5 298.5,377.5 Z"/></g>
<g><path style="opacity:1" fill="#717171" d="M 229.5,370.5 C 229.598,372.553 228.931,374.22 227.5,375.5C 227.402,373.447 228.069,371.78 229.5,370.5 Z"/></g>
<g><path style="opacity:1" fill="#242424" d="M 227.5,375.5 C 227.719,376.675 227.386,377.675 226.5,378.5C 226.167,378 225.833,377.5 225.5,377C 223.295,372.375 221.295,367.708 219.5,363C 221.167,362.333 222.833,362.333 224.5,363C 223.978,363.561 223.645,364.228 223.5,365C 224.567,368.716 225.901,372.216 227.5,375.5 Z"/></g>
<g><path style="opacity:1" fill="#101010" d="M 195.5,374.5 C 195.833,374.5 196.167,374.5 196.5,374.5C 196.33,375.822 196.663,376.989 197.5,378C 196.167,378.667 194.833,378.667 193.5,378C 194.305,376.887 194.972,375.721 195.5,374.5 Z"/></g>
<g><path style="opacity:1" fill="#101010" d="M 264.5,374.5 C 264.833,374.5 265.167,374.5 265.5,374.5C 265.33,375.822 265.663,376.989 266.5,378C 265.167,378.667 263.833,378.667 262.5,378C 263.305,376.887 263.972,375.721 264.5,374.5 Z"/></g>
<g><path style="opacity:1" fill="#454545" d="M 258.5,374.5 C 259.653,375.313 259.653,376.313 258.5,377.5C 257.635,378.583 256.635,378.749 255.5,378C 256.71,376.961 257.71,375.794 258.5,374.5 Z"/></g>
</svg>
